<?xml version="1.0" encoding="UTF-8" standalone="no"?>
<!-- Created with Inkscape (http://www.inkscape.org/) -->

<svg
   width="20"
   height="20"
   viewBox="0 0 5.2916668 5.2916668"
   version="1.1"
   id="svg1"
   inkscape:version="1.3.2 (1:1.3.2+202311252150+091e20ef0f)"
   sodipodi:docname="enter.svg"
   xmlns:inkscape="http://www.inkscape.org/namespaces/inkscape"
   xmlns:sodipodi="http://sodipodi.sourceforge.net/DTD/sodipodi-0.dtd"
   xmlns="http://www.w3.org/2000/svg"
   xmlns:svg="http://www.w3.org/2000/svg">
  <sodipodi:namedview
     id="namedview1"
     pagecolor="#505050"
     bordercolor="#eeeeee"
     borderopacity="1"
     inkscape:showpageshadow="0"
     inkscape:pageopacity="0"
     inkscape:pagecheckerboard="0"
     inkscape:deskcolor="#d1d1d1"
     inkscape:document-units="mm"
     inkscape:zoom="32"
     inkscape:cx="13.125"
     inkscape:cy="12.71875"
     inkscape:window-width="1864"
     inkscape:window-height="1009"
     inkscape:window-x="56"
     inkscape:window-y="36"
     inkscape:window-maximized="1"
     inkscape:current-layer="layer1" />
  <defs
     id="defs1">
    <path
       d="m 7.8614406,15.402878 c -0.426172,0 -0.852344,-0.163144 -1.1769672,-0.487768 l -3.19629,-3.19629 c -0.6509112,-0.650911 -0.6509112,-1.703023 0,-2.353934 0.6509111,-0.6509111 1.7030232,-0.6509111 2.3539344,0 l 2.0193228,2.019323 6.2976904,-6.2960256 c 0.649246,-0.6509112 1.703023,-0.6509112 2.353934,0 0.649247,0.6492464 0.649247,1.7030232 0,2.3539344 L 9.0384078,14.91511 c -0.3246232,0.324624 -0.7507952,0.487768 -1.1769672,0.487768"
       id="path-1" />
    <path
       d="M7.86144059,15.4028776 C7.43526859,15.4028776 7.00909658,15.2397336 6.68447338,14.9151104 L3.48818336,11.7188204 C2.83727221,11.0679093 2.83727221,10.0157971 3.48818336,9.364886 C4.1390945,8.71397485 5.19120664,8.71397485 5.84211778,9.364886 L7.86144059,11.3842088 L14.1591308,5.08818336 C14.8083772,4.43727221 15.862154,4.43727221 16.5130652,5.08818336 C17.1623116,5.73742977 17.1623116,6.79120664 16.5130652,7.44211778 L9.0384078,14.9151104 C8.7137846,15.2397336 8.28761259,15.4028776 7.86144059,15.4028776"
       id="path-1-1" />
    <path
       d="M7.86144059,15.4028776 C7.43526859,15.4028776 7.00909658,15.2397336 6.68447338,14.9151104 L3.48818336,11.7188204 C2.83727221,11.0679093 2.83727221,10.0157971 3.48818336,9.364886 C4.1390945,8.71397485 5.19120664,8.71397485 5.84211778,9.364886 L7.86144059,11.3842088 L14.1591308,5.08818336 C14.8083772,4.43727221 15.862154,4.43727221 16.5130652,5.08818336 C17.1623116,5.73742977 17.1623116,6.79120664 16.5130652,7.44211778 L9.0384078,14.9151104 C8.7137846,15.2397336 8.28761259,15.4028776 7.86144059,15.4028776"
       id="path-1-3" />
  </defs>
  <g
     inkscape:label="Layer 1"
     inkscape:groupmode="layer"
     id="layer1">
    <!-- Generator: Sketch 51.2 (57519) - http://www.bohemiancoding.com/sketch -->
    <title
       id="title1">General/Check</title>
    <desc
       id="desc1">Created with Sketch.</desc>
    <!-- Generator: Sketch 51.2 (57519) - http://www.bohemiancoding.com/sketch -->
    <title
       id="title1-6">General/Check</title>
    <desc
       id="desc1-2">Created with Sketch.</desc>
    <!-- Generator: Sketch 51.2 (57519) - http://www.bohemiancoding.com/sketch -->
    <title
       id="title1-9">General/Check</title>
    <desc
       id="desc1-20">Created with Sketch.</desc>
    <g
       id="g3"
       style="stroke:#ffffff;stroke-opacity:1">
      <path
         style="fill:none;fill-opacity:1;stroke:#ffffff;stroke-width:0.89;stroke-linecap:round;stroke-dasharray:none;stroke-opacity:1"
         d="M 1.2377352,2.7917573 2.0802264,3.6351038"
         id="path1"
         sodipodi:nodetypes="cc" />
      <path
         style="opacity:1;fill:none;fill-opacity:1;stroke:#ffffff;stroke-width:0.89;stroke-linecap:round;stroke-linejoin:miter;stroke-dasharray:none;stroke-opacity:1"
         d="M 4.0574962,1.6594676 2.0802264,3.6351038"
         id="path2"
         sodipodi:nodetypes="cc" />
    </g>
  </g>
</svg>
